<svg xmlns="http://www.w3.org/2000/svg" width="980" height="1160" viewBox="0 0 980 1160">
  <rect width="980" height="1160" fill="#0f1117"/>
  <rect x="180" y="40" width="800" height="1120" fill="#161b22"/>
  <text x="20" y="26" fill="#e6edf3" font-family="monospace" font-size="20">boss.png 800x1120 | frame 160x160 | rows 7 | cols 5</text>
  <g fill="#8b949e" font-family="monospace" font-size="18">
    <text x="244" y="28">0</text><text x="404" y="28">1</text><text x="564" y="28">2</text><text x="724" y="28">3</text><text x="884" y="28">4</text>
    <text x="16" y="100">0 walk (4)</text>
    <text x="16" y="260">1 windup (4)</text>
    <text x="16" y="420">2 attack (4)</text>
    <text x="16" y="580">3 recover (3)</text>
    <text x="16" y="740">4 hurt (2)</text>
    <text x="16" y="900">5 dead (4)</text>
    <text x="16" y="1060">6 specialAttack (5)</text>
  </g>
  <g stroke="#30363d" stroke-width="1">
    <line x1="180" y1="40" x2="180" y2="1160"/><line x1="340" y1="40" x2="340" y2="1160"/><line x1="500" y1="40" x2="500" y2="1160"/><line x1="660" y1="40" x2="660" y2="1160"/><line x1="820" y1="40" x2="820" y2="1160"/><line x1="980" y1="40" x2="980" y2="1160"/>
    <line x1="180" y1="40" x2="980" y2="40"/><line x1="180" y1="200" x2="980" y2="200"/><line x1="180" y1="360" x2="980" y2="360"/><line x1="180" y1="520" x2="980" y2="520"/><line x1="180" y1="680" x2="980" y2="680"/><line x1="180" y1="840" x2="980" y2="840"/><line x1="180" y1="1000" x2="980" y2="1000"/><line x1="180" y1="1160" x2="980" y2="1160"/>
  </g>
</svg>
