<svg xmlns="http://www.w3.org/2000/svg" width="436" height="424" viewBox="0 0 436 424">
  <rect width="436" height="424" fill="#0f1117"/>
  <rect x="180" y="40" width="256" height="384" fill="#161b22"/>
  <text x="20" y="26" fill="#e6edf3" font-family="monospace" font-size="20">grunt.png 256x384 | frame 64x64 | rows 6 | cols 4</text>
  <g fill="#8b949e" font-family="monospace" font-size="18">
    <text x="204" y="28">0</text><text x="268" y="28">1</text><text x="332" y="28">2</text><text x="396" y="28">3</text>
    <text x="16" y="84">0 walk (4)</text>
    <text x="16" y="148">1 windup (3)</text>
    <text x="16" y="212">2 attack (3)</text>
    <text x="16" y="276">3 recover (2)</text>
    <text x="16" y="340">4 hurt (2)</text>
    <text x="16" y="404">5 dead (3)</text>
  </g>
  <g stroke="#30363d" stroke-width="1">
    <line x1="180" y1="40" x2="180" y2="424"/><line x1="244" y1="40" x2="244" y2="424"/><line x1="308" y1="40" x2="308" y2="424"/><line x1="372" y1="40" x2="372" y2="424"/><line x1="436" y1="40" x2="436" y2="424"/>
    <line x1="180" y1="40" x2="436" y2="40"/><line x1="180" y1="104" x2="436" y2="104"/><line x1="180" y1="168" x2="436" y2="168"/><line x1="180" y1="232" x2="436" y2="232"/><line x1="180" y1="296" x2="436" y2="296"/><line x1="180" y1="360" x2="436" y2="360"/><line x1="180" y1="424" x2="436" y2="424"/>
  </g>
</svg>
