<svg xmlns="http://www.w3.org/2000/svg" width="756" height="904" viewBox="0 0 756 904">
  <rect width="756" height="904" fill="#0f1117"/>
  <rect x="180" y="40" width="576" height="864" fill="#161b22"/>
  <text x="20" y="26" fill="#e6edf3" font-family="monospace" font-size="20">player.png 576x864 | frame 96x96 | rows 9 | cols 6</text>
  <g fill="#8b949e" font-family="monospace" font-size="18">
    <text x="212" y="28">0</text><text x="308" y="28">1</text><text x="404" y="28">2</text><text x="500" y="28">3</text><text x="596" y="28">4</text><text x="692" y="28">5</text>
    <text x="16" y="100">0 idle (4)</text>
    <text x="16" y="196">1 walk (6)</text>
    <text x="16" y="292">2 slash (5)</text>
    <text x="16" y="388">3 charge (4)</text>
    <text x="16" y="484">4 heavy (6)</text>
    <text x="16" y="580">5 dodge (4)</text>
    <text x="16" y="676">6 parry (4)</text>
    <text x="16" y="772">7 hurt (2)</text>
    <text x="16" y="868">8 dead (3)</text>
  </g>
  <g stroke="#30363d" stroke-width="1">
    <line x1="180" y1="40" x2="180" y2="904"/><line x1="276" y1="40" x2="276" y2="904"/><line x1="372" y1="40" x2="372" y2="904"/><line x1="468" y1="40" x2="468" y2="904"/><line x1="564" y1="40" x2="564" y2="904"/><line x1="660" y1="40" x2="660" y2="904"/><line x1="756" y1="40" x2="756" y2="904"/>
    <line x1="180" y1="40" x2="756" y2="40"/><line x1="180" y1="136" x2="756" y2="136"/><line x1="180" y1="232" x2="756" y2="232"/><line x1="180" y1="328" x2="756" y2="328"/><line x1="180" y1="424" x2="756" y2="424"/><line x1="180" y1="520" x2="756" y2="520"/><line x1="180" y1="616" x2="756" y2="616"/><line x1="180" y1="712" x2="756" y2="712"/><line x1="180" y1="808" x2="756" y2="808"/><line x1="180" y1="904" x2="756" y2="904"/>
  </g>
</svg>
